PathFileType	4	(X/Y/Z)	RBDS020static.trc
DataRate	CameraRate	NumFrames	NumMarkers	Units	OrigDataRate	OrigDataStartFrame	OrigNumFrames
150.000000	150.000000	4	48	mm	150.000000	93	150
Frame#	Time	L.Ankle			L.Ankle.Medial			L.ASIS			L.GTR			L.Heel.Bottom			L.Heel.Lateral			L.Heel.Top			L.HF			L.Iliac.Crest			L.Knee			L.Knee.Medial			L.MT1			L.MT2			L.MT5			L.PSIS			L.Shank.Bottom.Lateral			L.Shank.Bottom.Medial			L.Shank.Top.Lateral			L.Shank.Top.Medial			L.Thigh.Bottom.Lateral			L.Thigh.Bottom.Medial			L.Thigh.Top.Lateral			L.Thigh.Top.Medial			L.TT			R.Ankle			R.Ankle.Medial			R.ASIS			R.GTR			R.Heel.Bottom			R.Heel.Lateral			R.Heel.Top			R.HF			R.Iliac.Crest			R.Knee			R.Knee.Medial			R.MT1			R.MT2			R.MT5			R.PSIS			R.Shank.Bottom.Lateral			R.Shank.Bottom.Medial			R.Shank.Top.Lateral			R.Shank.Top.Medial			R.Thigh.Bottom.Lateral			R.Thigh.Bottom.Medial			R.Thigh.Top.Lateral			R.Thigh.Top.Medial			R.TT			
		X1	Y1	Z1	X2	Y2	Z2	X3	Y3	Z3	X4	Y4	Z4	X5	Y5	Z5	X6	Y6	Z6	X7	Y7	Z7	X8	Y8	Z8	X9	Y9	Z9	X10	Y10	Z10	X11	Y11	Z11	X12	Y12	Z12	X13	Y13	Z13	X14	Y14	Z14	X15	Y15	Z15	X16	Y16	Z16	X17	Y17	Z17	X18	Y18	Z18	X19	Y19	Z19	X20	Y20	Z20	X21	Y21	Z21	X22	Y22	Z22	X23	Y23	Z23	X24	Y24	Z24	X25	Y25	Z25	X26	Y26	Z26	X27	Y27	Z27	X28	Y28	Z28	X29	Y29	Z29	X30	Y30	Z30	X31	Y31	Z31	X32	Y32	Z32	X33	Y33	Z33	X34	Y34	Z34	X35	Y35	Z35	X36	Y36	Z36	X37	Y37	Z37	X38	Y38	Z38	X39	Y39	Z39	X40	Y40	Z40	X41	Y41	Z41	X42	Y42	Z42	X43	Y43	Z43	X44	Y44	Z44	X45	Y45	Z45	X46	Y46	Z46	X47	Y47	Z47	X48	Y48	Z48	

94	0.62	705.0385131835938	110.4119491577148	1037.56494140625	734.63330078125	116.6319885253906	1116.08251953125	836.7088623046875	1044.999877929688	1099.116821289063	760.3694458007813	937.3967895507813	1040.790161132813	638.8208618164063	39.23043060302734	1085.920166015625	661.9674072265625	61.92984390258789	1042.436645507813	647.2123413085938	87.26039123535156	1085.570556640625	759.1915893554688	482.0284729003906	1033.795532226563	771.0170288085938	1090.88623046875	1072.646118164063	757.1067504882813	540.257080078125	1044.967651367188	762.0603637695313	523.5775146484375	1155.339477539063	857.325927734375	62.05991744995117	1118.15673828125	864.472900390625	68.94390869140625	1074.650146484375	823.5609130859375	48.77808380126953	1011.361206054688	676.3594360351563	1070.451782226563	1179.744140625	713.4609985351563	186.3847961425781	1030.561401367188	675.0821533203125	189.8400115966797	1070.261108398438	711.228515625	266.595947265625	1022.448364257813	675.0985107421875	270.8232421875	1062.30126953125	759.1973876953125	714.7046508789063	1024.84521484375	701.160888671875	710.1256713867188	1069.102661132813	749.0960083007813	824.052734375	1024.75537109375	696.581787109375	819.3662719726563	1070.759765625	810.0597534179688	448.5225524902344	1079.382080078125	703.0297241210938	106.4086151123047	1409.6337890625	728.9203491210938	119.7901382446289	1329.8837890625	848.9124145507813	1033.673583984375	1342.671508789063	778.832275390625	938.7811889648438	1392.278686523438	633.6952514648438	40.24385070800781	1367.889526367188	660.9561767578125	57.72620391845703	1411.387329101563	641.0014038085938	82.82225799560547	1367.337890625	741.2070922851563	482.6808776855469	1402.415893554688	793.982421875	1084.626708984375	1371.070556640625	742.529541015625	541.0379638671875	1393.202514648438	755.8986206054688	525.7855224609375	1281.427612304688	845.5465087890625	60.00345230102539	1329.51171875	860.8252563476563	74.60069274902344	1376.438598632813	825.3656005859375	50.88519668579102	1439.617919921875	683.2293090820313	1070.8017578125	1274.101318359375	710.1211547851563	202.9044189453125	1416.177978515625	669.2750244140625	208.1609344482422	1385.37890625	713.5512084960938	287.580810546875	1423.640502929688	669.1608276367188	288.762939453125	1393.540405273438	730.124267578125	677.0899658203125	1398.48193359375	684.04833984375	675.0479736328125	1343.865966796875	725.2091674804688	787.7058715820313	1396.655029296875	682.8391723632813	785.0189208984375	1342.883056640625	797.2880249023438	452.4134826660156	1351.174072265625	
95	0.6266666666666667	705.0422973632813	110.4080352783203	1037.5654296875	734.6319580078125	116.6290740966797	1116.078491210938	836.714599609375	1045.002807617188	1099.115844726563	760.3641357421875	937.4105224609375	1040.7900390625	638.8177490234375	39.22664642333984	1085.904052734375	661.96728515625	61.93393707275391	1042.436889648438	647.2164306640625	87.25647735595703	1085.562866210938	759.1885375976563	482.0168151855469	1033.802734375	771.0130004882813	1090.8955078125	1072.646484375	757.1077880859375	540.2617797851563	1044.969116210938	762.0750122070313	523.5742797851563	1155.336059570313	857.3257446289063	62.05910491943359	1118.161499023438	864.467041015625	68.9449462890625	1074.651489257813	823.5671997070313	48.76861190795898	1011.362243652344	676.36328125	1070.446655273438	1179.74755859375	713.459716796875	186.3744659423828	1030.572265625	675.083740234375	189.8362274169922	1070.252197265625	711.2308959960938	266.5950317382813	1022.450744628906	675.1026000976563	270.8230285644531	1062.296875	759.1913452148438	714.6997680664063	1024.847045898438	701.15478515625	710.1251831054688	1069.09765625	749.0925903320313	824.044921875	1024.762451171875	696.5816650390625	819.3626708984375	1070.76220703125	810.0547485351563	448.5138244628906	1079.376342773438	703.0325927734375	106.4056167602539	1409.631591796875	728.9268798828125	119.7931365966797	1329.885375976563	848.9140625	1033.671875	1342.673950195313	778.8453979492188	938.7693481445313	1392.280883789063	633.6983032226563	40.24491882324219	1367.88818359375	660.9559936523438	57.71582794189453	1411.380615234375	641.0020141601563	82.82646179199219	1367.349487304688	741.2044067382813	482.6776733398438	1402.41943359375	793.999755859375	1084.630859375	1371.071411132813	742.5327758789063	541.0340576171875	1393.201416015625	755.9073486328125	525.7833862304688	1281.428466796875	845.5504760742188	60.00444030761719	1329.51025390625	860.8167724609375	74.59268188476563	1376.453491210938	825.360107421875	50.87473297119141	1439.617919921875	683.2330322265625	1070.79443359375	1274.099365234375	710.125	202.8977966308594	1416.18896484375	669.2794799804688	208.1532440185547	1385.384521484375	713.5523071289063	287.5738830566406	1423.638916015625	669.1638793945313	288.7602233886719	1393.532470703125	730.1370239257813	677.0814208984375	1398.483764648438	684.054931640625	675.053466796875	1343.88330078125	725.21484375	787.6991577148438	1396.654052734375	682.84375	785.014404296875	1342.892211914063	797.2962646484375	452.4224548339844	1351.182006835938	
96	0.6333333333333334	705.0468139648438	110.4087448120117	1037.572387695313	734.6346435546875	116.6298294067383	1116.077758789063	836.7100830078125	1045.00634765625	1099.122192382813	760.3792724609375	937.408203125	1040.797607421875	638.814697265625	39.23941421508789	1085.90625	661.974609375	61.93690490722656	1042.442260742188	647.2172241210938	87.26170349121094	1085.553955078125	759.201171875	482.0092468261719	1033.790771484375	771.0197143554688	1090.898803710938	1072.650146484375	757.1073608398438	540.2636108398438	1044.9697265625	762.0673217773438	523.5791625976563	1155.345947265625	857.3186645507813	62.05750274658203	1118.162231445313	864.47216796875	68.94367980957031	1074.657470703125	823.5661010742188	48.77157211303711	1011.358947753906	676.3548583984375	1070.44189453125	1179.751953125	713.4636840820313	186.3742065429688	1030.57275390625	675.0817260742188	189.833984375	1070.26025390625	711.2276000976563	266.5942077636719	1022.451599121094	675.093994140625	270.8272705078125	1062.29833984375	759.1952514648438	714.7020874023438	1024.843383789063	701.165283203125	710.115966796875	1069.11962890625	749.0869140625	824.047119140625	1024.747680664063	696.580322265625	819.3619995117188	1070.766723632813	810.0713500976563	448.5259704589844	1079.385131835938	703.0388793945313	106.3991470336914	1409.629272460938	728.9244995117188	119.7925872802734	1329.88623046875	848.92431640625	1033.671630859375	1342.668212890625	778.8471069335938	938.7803955078125	1392.287475585938	633.6876831054688	40.24884414672852	1367.898193359375	660.9525146484375	57.73199462890625	1411.394287109375	641.0057373046875	82.82648468017578	1367.345703125	741.2116088867188	482.6776123046875	1402.412353515625	794.00390625	1084.641723632813	1371.075805664063	742.5432739257813	541.0272216796875	1393.19580078125	755.8989868164063	525.7836303710938	1281.441528320313	845.5514526367188	60.0109977722168	1329.506591796875	860.82080078125	74.58940124511719	1376.443725585938	825.3615112304688	50.88029861450195	1439.631591796875	683.2386474609375	1070.795043945313	1274.112426757813	710.1222534179688	202.9035186767578	1416.179077148438	669.2789306640625	208.1552124023438	1385.378784179688	713.5532836914063	287.5811462402344	1423.640258789063	669.1636962890625	288.7544555664063	1393.538330078125	730.1444091796875	677.0862426757813	1398.499633789063	684.0584106445313	675.0430908203125	1343.881103515625	725.2259521484375	787.7078247070313	1396.654174804688	682.84033203125	785.0115966796875	1342.901733398438	797.2958374023438	452.4061584472656	1351.179077148438	
97	0.64	705.0408325195313	110.4148941040039	1037.568603515625	734.6400756835938	116.6326293945313	1116.083129882813	836.72216796875	1045.005126953125	1099.112915039063	760.3787841796875	937.406982421875	1040.7939453125	638.8221435546875	39.227294921875	1085.916381835938	661.9740600585938	61.9324836730957	1042.440673828125	647.2071533203125	87.25885772705078	1085.567626953125	759.1890869140625	482.0125122070313	1033.803344726563	771.0186157226563	1090.8984375	1072.656494140625	757.10009765625	540.2572631835938	1044.979858398438	762.0853271484375	523.577392578125	1155.343383789063	857.3261108398438	62.05507659912109	1118.161010742188	864.4677124023438	68.94028472900391	1074.651489257813	823.56640625	48.76353073120117	1011.367370605469	676.3644409179688	1070.437866210938	1179.750244140625	713.457763671875	186.3762359619141	1030.576416015625	675.0802612304688	189.8359527587891	1070.260620117188	711.2188720703125	266.5950622558594	1022.450744628906	675.0977172851563	270.82373046875	1062.307250976563	759.1935424804688	714.6935424804688	1024.844604492188	701.16064453125	710.129638671875	1069.113647460938	749.07861328125	824.0477294921875	1024.757568359375	696.5866088867188	819.3599243164063	1070.762573242188	810.0556030273438	448.5137329101563	1079.38232421875	703.0362548828125	106.4005813598633	1409.637939453125	728.9274291992188	119.7911529541016	1329.8896484375	848.9310302734375	1033.67236328125	1342.676879882813	778.8599853515625	938.7713623046875	1392.286743164063	633.6995849609375	40.25018692016602	1367.890747070313	660.9533081054688	57.72213745117188	1411.386962890625	641.0090942382813	82.82083129882813	1367.334716796875	741.2225341796875	482.6717224121094	1402.416259765625	794.0170288085938	1084.643310546875	1371.079833984375	742.5517578125	541.0264282226563	1393.19287109375	755.9193115234375	525.7835083007813	1281.433959960938	845.5540771484375	60.00224304199219	1329.508422851563	860.8265380859375	74.58963775634766	1376.437377929688	825.3685302734375	50.88238525390625	1439.625854492188	683.2437133789063	1070.789916992188	1274.118774414063	710.1337280273438	202.8982696533203	1416.184692382813	669.2796020507813	208.1576080322266	1385.373413085938	713.5631103515625	287.5743713378906	1423.639404296875	669.1697998046875	288.7577514648438	1393.5234375	730.1528930664063	677.0791625976563	1398.497436523438	684.0750732421875	675.0499267578125	1343.902099609375	725.2322387695313	787.7005004882813	1396.666381835938	682.8468627929688	785.0106201171875	1342.919921875	797.3001708984375	452.4059143066406	1351.17578125	
